<?xml version="1.0" encoding="utf-8"?>
<!--Designed by Vexels.com - 2017 All Rights Reserved - https://vexels.com/terms-and-conditions/-->
<!DOCTYPE svg PUBLIC "-//W3C//DTD SVG 1.1//EN" "http://www.w3.org/Graphics/SVG/1.1/DTD/svg11.dtd">
<svg version="1.1" id="Capa_1" xmlns="http://www.w3.org/2000/svg" xmlns:xlink="http://www.w3.org/1999/xlink" x="0px" y="0px"
	 width="1200px" height="1200px" viewBox="0 0 1200 1200" enable-background="new 0 0 1200 1200" xml:space="preserve">
<g>
	<g>
		<path fill="#FFFFFF" d="M204.046,641.298c7.76-9.641,14.111-20.498,22.418-29.583c21.436-23.456,36.625-50.618,46.587-80.296
			c7.33-21.801,15.182-43.789,1.972-67.619c-13.09-23.613-32.886-37.946-56.665-46.6c-16.23-5.906-34.597-3.011-50.365,2.914
			c-23.667,8.904-46.528,20.346-68.741,32.525c-8.37,4.576-14.439,13.85-20.706,21.672c-6.789,8.467-2.928,19.091-3.856,28.692
			c-1.112,11.534-0.401,23.245-0.782,34.872c-0.789,23.858-2.281,47.719-2.542,71.592c-0.264,24.163,0.756,48.328,0.931,72.494
			c0.18,24.111-0.038,48.227-0.005,72.342c0.069,50.406,0.35,100.822,0.045,151.227c-0.028,5.424,1.144,7.273,6.001,8.758
			c5.047,1.543,7.112,0.584,8.99-4.512c1.057-2.883,4.888-5.064,7.903-6.824c13.531-7.9,27.373-15.258,40.789-23.326
			c15.01-9.027,29.479-18.979,44.55-27.891c24.673-14.588,49.985-28.439,67.43-52.082c9.082-12.287,17.862-25.129,24.488-38.818
			c12.414-25.684,13.577-51.93-1.552-77.465c-6.096-10.307-10.968-22.303-23.096-26.568c-12.333-4.342-25.435-5.873-38.614-2.755
			c-6.004,1.415-12.109,2.429-18.166,3.626c-0.417-0.727-0.837-1.443-1.254-2.158C194.584,650.798,199.863,646.488,204.046,641.298z
			 M186.021,485.083c7.161,0.354,9.787,5.231,10.886,11.834c2.038,12.305-1.385,23.651-5.857,34.643
			c-10.69,26.345-25.898,49.972-44.76,71.245c-0.523,0.601-1.403,0.897-4.934,3.067c1.207-15.942,2.281-29.48,3.252-43.039
			c0.59-8.298,1.172-16.605,1.501-24.92c0.422-10.742,0.083-21.549,1.151-32.222c0.374-3.784,3.129-8.204,6.149-10.693
			C162.748,487.3,174.033,484.479,186.021,485.083z M149.18,737.665c1.024-8.979,14.022-16.918,25.432-17.125
			c8.694-0.161,18.183,5.333,18.49,13.452c0.294,7.808-1.901,16.505-5.515,23.519c-8.637,16.77-23.515,27.359-39.238,36.615
			c-1.215-0.477-2.427-0.955-3.639-1.441C146.138,774.337,147.103,755.942,149.18,737.665z"/>
		<path fill="#FFFFFF" d="M782.805,329.605c-0.197-1.101-4.305-2.481-6.338-2.138c-15.435,2.531-30.883,5.104-46.127,8.533
			c-3.92,0.879-9.637,4.434-10.245,7.576c-5.292,27.307-9.394,54.84-14.265,82.228c-4.74,26.584-9.896,53.089-15.063,79.591
			c-0.702,3.604-2.605,6.973-4.364,11.509c-2.327-2.489-4.276-3.715-4.94-5.438c-11.365-28.915-22.254-58.017-34.001-86.767
			c-2.782-6.805-4.149-16.337-14.024-17.313c-4.531-0.453-9.381,1.106-13.926,2.331c-12.744,3.426-25.413,7.127-38.106,10.752
			c-4.548,1.311-9.053,2.721-14.657,4.402c-0.207,0.87-0.904,3.146-1.286,5.482c-3.753,23.34-7.63,46.674-11.134,70.049
			c-3.341,22.283-7.092,44.555-9.189,66.975c-2.748,29.194-4.133,58.524-5.886,87.81c-0.247,4.149,0.74,8.382,1.227,13.364
			c17.957-5.428,34.388-10.088,50.519-15.58c2.651-0.904,5.304-5.278,5.79-8.387c2.315-14.754,3.745-29.637,5.729-44.441
			c2.635-19.734,5.504-39.443,8.624-61.559c21.987,45.972,42.88,89.645,63.892,133.541c18.531-6.98,36.077-13.93,53.885-20.123
			c5.492-1.901,7.061-4.844,7.912-10.166c5.622-35.313,11.713-70.55,17.504-105.829c4.704-28.652,9.143-57.353,13.813-86.001
			c5.478-33.564,11.332-67.068,16.416-100.691C785.523,342.946,783.945,336.106,782.805,329.605z"/>
		<path fill="#FFFFFF" d="M896.339,385.305c-8.88-0.512-16.534,2.479-24.208,7.692c-16.014,10.879-27.876,24.545-38.209,41.02
			c-11.866,18.936-20.182,39.002-28.49,59.48c-11.26,27.736-17.184,56.397-20.789,85.928c-3.729,30.535,0.547,59.802,9.82,88.832
			c10.223,32.056,47.631,40.098,73.336,32.291c10.512-3.195,20.4-8.434,30.827-12.848c-0.06,25.566-0.124,50.953-0.188,77.915
			c11.604-0.568,21.771-1.252,31.955-1.497c7.589-0.18,11.346-4.4,12.456-11.192c1.351-8.222,2.453-16.519,3.052-24.826
			c1.297-18.108,1.73-36.276,3.405-54.353c1.883-20.383,4.627-40.684,7.171-61.001c2.473-19.64,5.356-39.221,7.66-58.862
			c0.77-6.533,0.287-13.199,0.386-20.201c-25.032,5.069-48.462,10.223-72.066,14.394c-9.345,1.654-13.476,5.05-13.632,15.205
			c-0.242,16.653-2.246,33.281-3.517,50.032c1.915,0.031,2.884,0.285,3.677,0.018c16.242-5.437,15.492-5.318,18.396,11.194
			c2.455,13.878-5.974,18.444-18.378,19.16c-22.871,1.337-40.3-16.501-42.146-39.265c-1.404-17.484,0.176-34.377,4.744-51.313
			c6.031-22.345,10.961-45.131,26.121-63.515c9.615-11.636,21.247-21.015,37.34-21.593c17.436-0.621,33.238,4.722,47.153,15.166
			c2.821,2.124,4.604,5.647,7.772,9.679c7.082-14.354,12.781-25.866,18.453-37.404c5.766-11.73,11.488-23.473,17.102-34.949
			c-16.101-14.398-30.041-30.25-52.761-31.67C927.29,387.851,911.841,386.194,896.339,385.305z"/>
		<path fill="#FFFFFF" d="M501.256,663.313c-7.042-18.847-15.353-37.306-21.031-56.538c-10.879-36.867-20.341-74.162-30.28-111.301
			c-2.722-10.19-4.726-20.596-7.719-30.713c-1.79-6.024-6.081-10.704-13.043-9.448c-7.407,1.339-14.689,3.589-21.842,6.006
			c-20.646,6.971-41.293,13.935-61.657,21.655c-2.97,1.121-5.736,6.079-6.312,9.633c-2.177,13.352-3.493,26.84-4.948,40.302
			c-0.708,6.505-0.535,13.124-1.603,19.55c-2.51,15.156-5.965,30.155-8.277,45.326c-6.486,42.561-12.556,85.174-18.864,127.76
			c-1.819,12.262-3.628,24.539-5.93,36.725c-2.89,15.356-6.355,30.602-9.392,45.93c-0.621,3.104-1.726,7.49-0.221,9.252
			c1.602,1.885,6.25,2.357,9.191,1.707c13.498-2.969,26.829-6.736,40.293-9.854c10.451-2.427,14.667-9.964,15.887-19.271
			c2.394-18.216,5.03-36.413,8.351-54.47c0.632-3.438,4.319-7.766,7.604-8.982c9.1-3.363,18.75-5.271,28.159-7.83
			c11.72-3.203,23.302-6.938,35.171-9.379c3.097-0.643,9.059,1.705,10.183,4.23c7.546,17.049,14.592,34.347,20.842,51.903
			c3.001,8.425,6.771,11.454,14.58,6.958c14.625-8.416,28.984-17.326,43.18-26.439c2.508-1.605,3.719-5.254,4.752-6.787
			c-0.692-3.563-0.787-5.102-1.291-6.473C518.481,709.597,509.903,686.448,501.256,663.313z M391.626,558.386
			c1.12-0.026,2.248-0.061,3.361-0.081c3.673,9.273,7.389,18.535,11,27.841c3.509,8.985,7.066,17.955,10.209,27.062
			c0.609,1.761,0.088,5.478-1.001,6.002c-10.499,5.037-21.232,9.581-34.747,15.519C384.436,607.47,388.036,582.931,391.626,558.386z
			"/>
		<path fill="#FFFFFF" d="M1066.149,306.657c-0.542,3.082-1.052,5.426-1.335,7.802c-3.88,32.888-7.494,65.79-11.729,98.632
			c-1.596,12.346-5.518,24.408-6.845,36.768c-2.933,27.466-4.909,55.021-7.222,82.546c-2.325,27.761-4.667,55.513-6.775,83.28
			c-0.237,3.176,0.982,6.467,1.521,9.693c3.11-0.639,6.465-0.733,9.3-2.006c11.757-5.279,23.271-11.102,35.045-16.359
			c6.222-2.77,9.53-7.19,10.901-13.748c12.085-57.76,24.114-115.523,36.507-173.217c6.918-32.117,14.656-64.071,21.641-96.176
			c1.705-7.846,1.889-16.016,2.842-24.65C1120.702,301.814,1093.848,304.204,1066.149,306.657z"/>
		<path fill="#FFFFFF" d="M1034.687,652.674c-12.308,1.241-18.924,10.534-24.204,20.202c-6.924,12.693-5.929,26.771-1.445,39.58
			c4.435,12.677,11.842,22.58,23.346,21.332c5.046-2.646,10.767-4.489,15.035-8.066c25.126-21.053,24.969-28.115,18.693-51.941
			C1063.146,662.521,1046.09,651.517,1034.687,652.674z"/>
	</g>
	<g>
		<g>
			<path fill-rule="evenodd" clip-rule="evenodd" fill="#1E1E1E" d="M182.724,627.116c7.76-9.641,14.111-20.498,22.418-29.583
				c21.436-23.456,36.625-50.618,46.587-80.295c7.33-21.802,15.182-43.79,1.972-67.62c-13.09-23.613-32.886-37.946-56.665-46.6
				c-16.23-5.906-34.597-3.011-50.365,2.914c-23.667,8.904-46.528,20.346-68.741,32.525c-8.37,4.576-14.439,13.85-20.706,21.672
				c-6.789,8.467-2.928,19.091-3.856,28.692c-1.112,11.534-0.401,23.245-0.783,34.872c-0.789,23.858-2.281,47.719-2.542,71.592
				c-0.264,24.164,0.756,48.328,0.931,72.494c0.18,24.111-0.038,48.227-0.005,72.342c0.069,50.406,0.35,100.822,0.046,151.227
				c-0.028,5.424,1.143,7.273,6,8.758c5.047,1.543,7.112,0.585,8.991-4.512c1.057-2.883,4.888-5.064,7.903-6.824
				c13.53-7.9,27.372-15.258,40.789-23.326c15.01-9.027,29.479-18.979,44.55-27.89c24.672-14.589,49.985-28.44,67.43-52.083
				c9.082-12.287,17.862-25.129,24.488-38.818c12.414-25.684,13.577-51.93-1.552-77.464c-6.096-10.308-10.968-22.303-23.096-26.569
				c-12.333-4.342-25.435-5.873-38.614-2.754c-6.004,1.415-12.109,2.428-18.167,3.625c-0.417-0.727-0.837-1.443-1.253-2.158
				C173.262,636.616,178.541,632.307,182.724,627.116z M164.699,470.901c7.161,0.354,9.786,5.231,10.885,11.834
				c2.039,12.305-1.385,23.652-5.857,34.643c-10.69,26.345-25.898,49.973-44.76,71.245c-0.524,0.601-1.403,0.897-4.934,3.067
				c1.206-15.942,2.281-29.48,3.251-43.039c0.591-8.298,1.172-16.605,1.501-24.92c0.423-10.742,0.083-21.549,1.152-32.222
				c0.374-3.784,3.129-8.204,6.149-10.693C141.426,473.118,152.711,470.297,164.699,470.901z M127.028,779.944
				c-1.215-0.477-2.428-0.955-3.639-1.441c1.426-18.348,2.392-36.742,4.469-55.02c1.024-8.979,14.023-16.918,25.432-17.125
				c8.694-0.161,18.183,5.333,18.49,13.452c0.294,7.808-1.901,16.505-5.514,23.519C157.628,760.099,142.75,770.688,127.028,779.944z
				"/>
			<path fill-rule="evenodd" clip-rule="evenodd" fill="#1E1E1E" d="M761.477,315.424c-0.197-1.101-4.305-2.481-6.337-2.138
				c-15.436,2.531-30.884,5.104-46.128,8.533c-3.92,0.879-9.637,4.434-10.244,7.576c-5.293,27.307-9.394,54.84-14.266,82.228
				c-4.74,26.584-9.896,53.089-15.063,79.591c-0.702,3.604-2.605,6.973-4.364,11.509c-2.327-2.489-4.276-3.715-4.94-5.438
				c-11.364-28.915-22.254-58.017-34.001-86.767c-2.782-6.805-4.149-16.336-14.023-17.313c-4.532-0.452-9.382,1.106-13.927,2.331
				c-12.744,3.426-25.413,7.127-38.106,10.752c-4.548,1.311-9.053,2.721-14.657,4.402c-0.206,0.87-0.904,3.146-1.286,5.482
				c-3.753,23.34-7.63,46.674-11.134,70.049c-3.34,22.283-7.092,44.555-9.188,66.975c-2.749,29.195-4.134,58.524-5.887,87.81
				c-0.247,4.149,0.74,8.382,1.228,13.364c17.957-5.428,34.387-10.088,50.518-15.58c2.651-0.904,5.304-5.278,5.79-8.387
				c2.315-14.754,3.745-29.637,5.729-44.441c2.635-19.734,5.504-39.442,8.625-61.559c21.987,45.972,42.88,89.645,63.892,133.541
				c18.531-6.98,36.077-13.93,53.885-20.123c5.492-1.9,7.062-4.844,7.912-10.166c5.622-35.313,11.713-70.55,17.504-105.829
				c4.704-28.652,9.143-57.353,13.813-86.001c5.479-33.564,11.332-67.068,16.416-100.691
				C764.195,328.765,762.617,321.925,761.477,315.424z"/>
			<path fill-rule="evenodd" clip-rule="evenodd" fill="#1E1E1E" d="M846.393,475.411c9.615-11.636,21.247-21.015,37.34-21.593
				c17.436-0.621,33.238,4.722,47.153,15.166c2.821,2.124,4.604,5.648,7.773,9.679c7.081-14.354,12.78-25.866,18.452-37.404
				c5.766-11.73,11.488-23.472,17.102-34.949c-16.101-14.398-30.041-30.25-52.761-31.67c-15.49-0.971-30.939-2.627-46.441-3.517
				c-8.88-0.512-16.534,2.479-24.208,7.692c-16.014,10.879-27.875,24.545-38.209,41.02c-11.866,18.936-20.182,39.002-28.49,59.48
				c-11.26,27.736-17.183,56.397-20.789,85.928c-3.729,30.535,0.547,59.802,9.82,88.832c10.223,32.056,47.631,40.098,73.337,32.291
				c10.511-3.195,20.399-8.434,30.826-12.848c-0.059,25.566-0.124,50.953-0.188,77.915c11.604-0.568,21.771-1.252,31.955-1.497
				c7.589-0.18,11.346-4.399,12.457-11.192c1.35-8.222,2.452-16.519,3.051-24.826c1.297-18.108,1.73-36.276,3.405-54.353
				c1.883-20.383,4.627-40.684,7.171-61.001c2.473-19.64,5.357-39.22,7.66-58.862c0.771-6.533,0.287-13.198,0.387-20.201
				c-25.033,5.069-48.463,10.223-72.067,14.395c-9.345,1.653-13.476,5.049-13.632,15.204c-0.242,16.653-2.246,33.281-3.516,50.032
				c1.914,0.031,2.883,0.285,3.676,0.018c16.242-5.437,15.492-5.318,18.396,11.194c2.455,13.878-5.974,18.444-18.378,19.16
				c-22.87,1.337-40.3-16.501-42.146-39.265c-1.404-17.484,0.177-34.377,4.744-51.313
				C826.303,516.581,831.232,493.795,846.393,475.411z"/>
			<path fill-rule="evenodd" clip-rule="evenodd" fill="#1E1E1E" d="M479.928,649.132c-7.041-18.848-15.353-37.307-21.031-56.539
				c-10.879-36.866-20.341-74.162-30.274-111.301c-2.722-10.189-4.726-20.596-7.719-30.713c-1.79-6.024-6.081-10.704-13.043-9.448
				c-7.407,1.339-14.689,3.589-21.842,6.006c-20.646,6.971-41.293,13.935-61.658,21.655c-2.969,1.121-5.736,6.079-6.311,9.633
				c-2.177,13.352-3.493,26.84-4.948,40.302c-0.709,6.505-0.535,13.124-1.603,19.55c-2.511,15.156-5.966,30.155-8.277,45.326
				c-6.486,42.561-12.556,85.174-18.864,127.76c-1.819,12.262-3.627,24.539-5.93,36.725c-2.89,15.356-6.356,30.602-9.392,45.93
				c-0.621,3.104-1.726,7.49-0.222,9.252c1.602,1.885,6.25,2.357,9.192,1.707c13.497-2.969,26.829-6.736,40.293-9.854
				c10.451-2.427,14.667-9.964,15.888-19.271c2.394-18.216,5.03-36.413,8.351-54.47c0.632-3.438,4.319-7.766,7.604-8.982
				c9.1-3.363,18.75-5.271,28.159-7.83c11.72-3.203,23.302-6.938,35.171-9.379c3.097-0.643,9.059,1.705,10.183,4.23
				c7.547,17.049,14.586,34.347,20.837,51.903c3.001,8.425,6.77,11.454,14.58,6.958c14.625-8.416,28.984-17.326,43.18-26.439
				c2.507-1.605,3.719-5.254,4.752-6.787c-0.691-3.563-0.787-5.102-1.29-6.473C497.153,695.415,488.575,672.267,479.928,649.132z
				 M370.304,544.204c1.12-0.026,2.248-0.061,3.361-0.081c3.673,9.274,7.389,18.535,11,27.841
				c3.509,8.985,7.065,17.955,10.209,27.062c0.61,1.761,0.088,5.478-1.001,6.002c-10.498,5.037-21.232,9.581-34.746,15.519
				C363.114,593.288,366.714,568.749,370.304,544.204z"/>
			<path fill-rule="evenodd" clip-rule="evenodd" fill="#1E1E1E" d="M1044.822,292.476c-0.543,3.082-1.053,5.426-1.335,7.803
				c-3.881,32.887-7.495,65.789-11.729,98.631c-1.595,12.346-5.518,24.408-6.845,36.768c-2.933,27.466-4.909,55.021-7.222,82.546
				c-2.324,27.761-4.666,55.513-6.775,83.28c-0.236,3.176,0.982,6.467,1.521,9.693c3.11-0.639,6.465-0.733,9.3-2.006
				c11.757-5.279,23.271-11.102,35.045-16.359c6.222-2.77,9.53-7.19,10.901-13.748c12.085-57.76,24.114-115.523,36.507-173.217
				c6.918-32.117,14.656-64.071,21.641-96.176c1.705-7.846,1.889-16.016,2.842-24.65
				C1099.374,287.633,1072.52,290.022,1044.822,292.476z"/>
			<path fill-rule="evenodd" clip-rule="evenodd" fill="#1E1E1E" d="M1013.358,638.492c-12.307,1.241-18.924,10.534-24.204,20.202
				c-6.924,12.693-5.929,26.771-1.445,39.58c4.435,12.678,11.842,22.58,23.346,21.332c5.046-2.646,10.767-4.489,15.035-8.066
				c25.126-21.053,24.969-28.115,18.693-51.941C1041.818,648.339,1024.762,637.336,1013.358,638.492z"/>
		</g>
		<path fill="#FF3939" d="M194.06,419.101c-17.868-3.75-35.491-0.503-53.221,5.432c-24.282,8.13-46.119,19.813-65.673,35.943
			c-3.844,3.177-7.694,8.106-8.576,12.783c-2.496,13.287-4.293,26.831-4.789,40.323c-0.531,14.329,1.097,28.731,1.197,43.103
			c0.225,33.238-0.054,66.494,0.172,99.736c0.156,21.857,0.857,43.723,1.257,65.578c0.183,9.572,0.402,19.152,0.343,28.723
			c-0.146,24.293-0.764,48.592-0.573,72.873c0.12,15.222,1.281,30.447,2.142,45.664c0.2,3.36,1.122,6.684,1.909,11.109
			c12.79-7.141,24.497-13.232,35.75-20.064c25.293-15.375,50.345-31.117,75.487-46.715c20.199-12.539,37.113-28.668,50.764-48
			c11.303-16.02,16.607-34.031,18.75-53.797c1.958-18.037-3.738-32.846-12.81-46.942c-3.382-5.233-9.186-10.419-14.968-12.297
			c-19.668-6.398-39.493-2.958-58.606,3.159c-12.912,4.131-12.807,4.871-13.354-8.23c-0.058-1.492-0.146-2.995-0.211-4.279
			c4.521-3.316,8.854-5.527,11.875-8.904c15.681-17.546,31.451-35.048,46.317-53.27c8.167-10.021,16.451-20.676,21.409-32.412
			c6.724-15.929,11.126-32.978,14.979-49.899c3.54-15.532,3.025-31.499-3.37-46.472C231.624,432.073,213.767,423.227,194.06,419.101
			z M169.516,701.528c16.874,10.656,13.48,25.657,9.044,38.3c-8.21,23.391-26.781,37.675-45.75,51.582
			c-3.522,2.578-7.051,5.148-10.504,7.662c-1.488-30.55-3.373-60.413-3.834-90.29c-0.059-3.497,7.353-7.792,11.994-10.54
			C139.613,692.814,160.859,696.056,169.516,701.528z M188.238,495.872c-10.342,39.119-30.81,72.998-54.18,105.361
			c-3.982,5.509-8.535,10.635-13.212,15.577c-1.325,1.399-4.123,2.31-5.982,1.978c-1.169-0.208-2.542-3.12-2.614-4.873
			c-0.188-4.476,0.303-8.979,0.522-13.471c-0.072,0.007-0.145-0.01-0.22-0.004c1.13-39.254,2.101-78.509,3.619-117.75
			c0.15-3.854,2.739-9.047,5.862-11.121c15.655-10.408,32.838-16.521,51.845-11.654
			C186.212,463.086,192.365,480.257,188.238,495.872z M929.254,387.373c-20.131-7.354-39.827-9.64-59.44-1.179
			c-11.769,5.065-24.294,11.02-32.945,19.979c-10.337,10.721-17.441,24.769-24.966,37.943c-7.16,12.535-14.357,25.325-19.239,38.828
			c-11.266,31.201-20.972,62.639-21.415,96.672c-0.305,24.143,1.26,47.211,11.547,69.15c8.56,18.251,23.232,28.137,43.238,29.498
			c6.9,0.469,14.566,1.012,20.74-1.393c10.577-4.141,20.264-10.566,30.957-16.372c2.095,3.134,6.028,6.331,6.109,9.617
			c0.459,16.863-0.481,33.769-0.094,50.638c0.205,8.34,2.243,16.633,3.446,25.035c5.458-1.068,8.928-2.421,12.337-2.264
			c6.708,0.306,9.484-2.361,10.23-9.031c2.655-23.61,5.978-47.145,8.643-70.76c3.295-29.247,6.148-58.545,9.252-87.817
			c1.434-13.492,3.023-26.97,4.659-41.465c-3.907,0.19-6.336-0.021-8.633,0.467c-17.601,3.741-35.234,7.384-52.688,11.712
			c-2.576,0.636-5.916,4.621-6.101,7.254c-0.718,10.483-0.331,21.039-0.354,32.363c4.689-0.833,8.931-1.974,13.222-2.261
			c9.343-0.647,12.839,3.033,12.35,12.089c-0.396,7.596-0.239,15.239-1.08,22.781c-0.442,3.986-1.314,9.742-3.995,11.335
			c-11.979,7.128-24.234,15.106-39.387,9.36c-5.201-1.981-10.38-4.088-15.413-6.45c-13.685-6.411-21.483-18.563-24.361-32.08
			c-4.852-22.774-2.599-45.962,5.713-67.766c8.997-23.613,15.429-48.538,33.884-67.722c24.668-25.663,56.172-29.287,85.574-8.913
			c5.331,3.692,10.014,3.316,12.937-3.118c5.483-12.121,10.653-24.402,16.363-36.41c2.574-5.389,2.232-9.16-2.419-13.354
			C949.488,396.117,940.109,391.347,929.254,387.373z M1106.108,293.337c-3.78,0.128-7.503,1.594-11.296,2.121
			c-6.725,0.934-13.615,2.855-20.197,2.135c-14.132-1.55-19.871,2.39-21.735,16.021c-3.12,22.571-6.892,45.052-10.021,67.621
			c-3.535,25.458-6.778,50.959-9.925,76.459c-4.229,34.131-8.613,68.247-12.168,102.437c-1.273,12.186-0.33,24.594-0.396,38.397
			c9.617-4.725,17.826-7.699,24.795-12.479c6.699-4.597,14.666-7.763,15.869-18.758c1.998-18.116,6.285-35.991,10.087-53.875
			c6.198-29.174,12.849-58.239,19.179-87.372c3.644-16.758,7.057-33.555,10.545-50.341c3.133-15.007,5.996-30.069,9.384-45.021
			c2.681-11.873,5.976-23.601,9.085-35.74C1113.76,294.209,1109.912,293.204,1106.108,293.337z M707.798,342.466
			c-13.502,62.369-27.491,124.626-41.354,186.907c-0.659,2.981-1.579,5.903-2.378,8.853c-0.451-0.133-0.926-0.262-1.396-0.402
			c-1.339-5.589-2.128-11.383-4.123-16.715c-4.249-11.338-9.181-22.404-13.741-33.617c-10.719-26.298-21.459-52.593-31.99-78.968
			c-2.17-5.401-5.182-6.03-10.415-4.331c-8.366,2.719-17.037,4.465-25.518,6.842c-14.315,4.006-24.543,11.361-26.762,27.8
			c-2.366,17.568-7.304,34.792-9.589,52.36c-2.469,19.126-3.145,38.494-4.661,57.737c-1.009,12.714-2.016,25.419-3.229,38.104
			c-1.519,15.947-3.25,31.861-4.956,48.472c10.287-2.655,19.405-4.81,28.397-7.375c11.177-3.185,13.86-7.411,13.387-19.595
			c-0.212-5.379-0.857-10.85-0.186-16.129c2.736-21.365,5.793-42.681,8.966-63.982c1.357-9.071,3.132-18.092,5.157-27.041
			c0.491-2.208,2.865-5.83,4.046-5.702c2.619,0.276,6.164,1.901,7.338,4.061c6.344,11.721,12.267,23.68,17.966,35.722
			c6.949,14.684,13.087,29.767,20.407,44.254c7.951,15.752,17.071,30.904,25.284,46.522c5.391,10.284,6.681,11.134,17.422,7.761
			c4.508-1.422,9.167-2.327,13.652-3.799c14.629-4.826,16.992-8.789,18.797-24.682c1.904-16.717,4.533-33.37,7.54-49.936
			c4.702-25.916,10.595-51.608,14.886-77.59c6.038-36.702,10.947-73.6,16.588-110.375c2.01-13.14,4.728-26.181,7.298-40.227
			c-12.743,1.666-23.963,3.486-35.241,4.49C712.381,332.521,709.355,335.27,707.798,342.466z M1012.04,648.683
			c-9.874,3.611-19.647,15.332-18.569,28.541c2.752,7.037,4.373,14.885,8.658,20.822c2.734,3.816,10.51,7.848,14.109,6.537
			c17.264-6.314,29.563-25.89,21.066-45.764C1033.635,650.249,1020.857,645.452,1012.04,648.683z M440.461,557.239
			c-9.187-31.434-18.52-62.848-28.011-94.208c-1.665-5.498-5.368-9.37-11.893-7.3c-8.125,2.578-16.203,5.344-24.177,8.365
			c-12.068,4.599-23.728,10.645-36.139,13.881c-9.498,2.48-13.393,7.227-14.398,16.266c-1.311,11.752-3.125,23.46-4.719,35.185
			c-3.799,27.862-7.075,55.792-11.51,83.559c-7.365,46.048-15.516,91.968-23.263,137.95c-2.331,13.809-4.391,27.657-6.994,44.113
			c10.158-3.094,18.101-6.582,26.36-7.771c13.232-1.91,19.062-8.79,20.123-21.854c1.408-17.629,3.996-35.162,5.918-52.744
			c0.683-6.154,3.68-9.46,9.852-10.73c9.474-1.947,18.91-4.244,28.225-6.853c18.123-5.08,36.143-10.483,54.726-15.911
			c9.324,22.269,18.657,44.547,28.412,67.826c13.474-8.707,26.22-16.945,39.176-25.313c-11.46-34.436-22.905-67.775-33.583-101.346
			C451.933,599.505,446.61,578.249,440.461,557.239z M340.46,632.571c3.951-17.623,7.995-34.12,11.277-50.757
			c3.116-15.734,5.432-31.62,8.095-47.442c0.295-1.768,0.043-3.928,0.989-5.219c2.284-3.121,4.916-7.828,7.817-8.146
			c2.763-0.297,7.657,3.545,8.829,6.623c8.906,23.43,17.241,47.066,25.487,70.734c1.622,4.667,2.105,9.721,3.284,15.512
			C383.491,620.335,362.247,626.378,340.46,632.571z"/>
	</g>
</g>
</svg>
