<?xml version="1.0" encoding="utf-8"?>
<!--Designed by Vexels.com - 2017 All Rights Reserved - https://vexels.com/terms-and-conditions/-->
<svg version="1.1" id="Layer_1" xmlns="http://www.w3.org/2000/svg" xmlns:xlink="http://www.w3.org/1999/xlink" x="0px" y="0px"
	 viewBox="0 0 1200 1200" enable-background="new 0 0 1200 1200" xml:space="preserve">
<path fill="#2E404D" d="M277.294,1016.371c0,0-93.179,85.581-97.003,102.703c0,0-47.54,47.565-66.561,24.719
	c0,0-24.72-5.699-19.021-9.497c0,0-28.544-15.222,5.699-30.443c0,0,28.531-15.222,58.975-43.741
	c30.43-28.544,77.982-98.916,85.593-121.723c7.599-22.845,22.821-51.377-5.71-85.62c0,0-165.477-131.233-87.494-317.644
	c0,0,3.8-60.874-5.71-79.894c0,0-15.222-76.072,17.12-81.795c0,0,49.453,26.631,70.385,62.786c0,0,36.143-5.723,43.729,3.8
	l60.875-68.473c0,0-24.732,64.673,1.899,81.782c0,0,41.853,45.666,45.653,83.695c0,0,30.443-24.72,72.284-28.531
	c0,0,260.581,0,308.146,5.711c47.553,5.699,77.997,5.699,108.427-13.31c30.43-19.034,79.883-89.393,102.716-121.736
	c22.82-32.33,83.681-129.347,85.581-135.046c1.912-5.724,26.644-95.116,5.724-129.346c-20.933-34.243-22.833-74.197,7.599-62.774
	c0,0,51.363,55.163,38.041,142.657c-13.309,87.493-55.162,150.268-77.982,186.409c-22.82,36.142-93.205,135.058-108.414,161.678
	c-15.222,26.618-32.342,28.543-15.222,51.352c17.121,22.832,41.855,91.317,51.364,140.781c9.511,49.439,3.813,45.64,26.632,74.171
	c22.82,28.531,36.129,68.473,76.083,93.205c39.929,24.733,24.719,15.209,28.532,51.339c3.799,36.155,11.41,95.13,9.509,121.748
	c-1.912,26.645-19.034,22.833-19.034,34.243c0,11.397-11.41,38.042-49.451,17.121c0,0-32.331-41.866,13.322-38.041
	c0,0,13.297-100.816-22.833-117.949c0,0-190.221-87.482-201.619-136.946c0,0-15.208,1.899-9.509,22.833
	c0,0-3.812,87.481,15.221,104.602c0,0,20.921,15.234,3.8,32.342c0,0-79.896,129.348-97.004,140.758
	c-17.133,11.41-104.615,19.02-62.774-28.52c0,0,13.323-20.919,32.331-11.41c0,0,45.653-57.061,51.351-76.095
	c0,0,19.034-47.564-22.82-64.686c0,0-125.523-104.603-100.803-165.464c0,0-144.569,34.218-203.531,39.942
	c-58.975,5.699-7.612,3.798-7.612,3.798s-58.962,89.407-85.593,110.327c0,0-30.432,144.569-62.762,163.589
	c0,0-125.548,13.297-39.954-34.242C235.466,1071.534,271.582,1046.776,277.294,1016.371z"/>
</svg>
